<?xml version="1.0" encoding="utf-8"?>
<!-- Generator: Adobe Illustrator 23.1.0, SVG Export Plug-In . SVG Version: 6.00 Build 0)  -->
<svg version="1.1" id="Layer_1" xmlns="http://www.w3.org/2000/svg" xmlns:xlink="http://www.w3.org/1999/xlink" x="0px" y="0px"
	 viewBox="0 0 78.3 260" style="enable-background:new 0 0 78.3 260;" xml:space="preserve">
<style type="text/css">
	.st0{fill:#010101;}
	.st1{fill:#CF2927;}
</style>
<g>
	<path class="st0" d="M38.9,254.9c-0.3,0-0.7,0-1,0c-8.4-0.2-16.3-3.5-22.4-9.3c-1-1.2-10.9-13.9-10.1-25.2L28.1,17.9l0-0.1
		c-0.1-3.4,1.2-6.7,3.6-9.1c2.2-2.3,5.1-3.5,8.3-3.5c3,0,5.8,1.1,7.9,3.2c2.3,2.2,3.6,5.3,3.5,8.4l0,0.1l21.7,204.9
		C72.5,240.3,57.5,254.9,38.9,254.9z"/>
	<path class="st1" d="M40,3.1v4c2.5,0,4.8,0.9,6.5,2.6c1.9,1.8,2.9,4.3,2.9,7l0,0.2l0,0.2l21.7,204.6c-0.3,8.4-3.8,16.2-9.8,22
		c-6.1,5.9-14,9.1-22.5,9.1c-0.3,0-0.7,0-1,0c-7.8-0.2-15.3-3.3-21-8.6c-1.3-1.6-10.3-13.4-9.6-23.7L30.1,18.3l0-0.3l0-0.3
		c-0.1-2.8,1-5.6,3-7.7c1.8-1.9,4.2-2.9,6.8-2.9L40,3.1 M40,3.1c-3.5,0-7.1,1.4-9.7,4.1c-2.8,2.8-4.3,6.6-4.1,10.6L3.3,220.2
		C2.4,233,13.9,247,13.9,247c6.5,6.1,15,9.6,23.8,9.9c0.4,0,0.7,0,1.1,0c19.6,0,35.7-15.6,36.3-35.2L53.4,16.8
		c0.1-3.7-1.4-7.3-4.1-9.9C46.7,4.4,43.3,3.1,40,3.1L40,3.1z"/>
</g>
</svg>
